<svg width="21" height="22" viewBox="0 0 21 22" fill="none" xmlns="http://www.w3.org/2000/svg">
<path d="M19.8175 11.2679C20.2476 10.6995 20.4856 10.0032 20.4856 9.27864C20.4856 8.12914 19.8431 7.04109 18.8088 6.43433C18.5425 6.27815 18.2393 6.19595 17.9306 6.19624H11.7914L11.945 3.04984C11.9809 2.28948 11.7121 1.56752 11.1898 1.01709C10.9335 0.745789 10.6243 0.529931 10.2812 0.382857C9.93822 0.235783 9.56868 0.160618 9.19546 0.162006C7.86419 0.162006 6.68653 1.05805 6.33323 2.34068L4.13407 10.3027H0.82382C0.370677 10.3027 0.00457764 10.6688 0.00457764 11.1219V20.4408C0.00457764 20.894 0.370677 21.2601 0.82382 21.2601H16.2179C16.4534 21.2601 16.6838 21.214 16.8963 21.1218C18.115 20.6021 18.9009 19.4116 18.9009 18.0906C18.9009 17.768 18.8548 17.4506 18.7627 17.1434C19.1928 16.575 19.4309 15.8787 19.4309 15.1541C19.4309 14.8316 19.3848 14.5141 19.2926 14.2069C19.7227 13.6385 19.9608 12.9422 19.9608 12.2177C19.9557 11.8951 19.9096 11.5751 19.8175 11.2679ZM1.84787 19.4168V12.146H3.92158V19.4168H1.84787ZM18.1406 10.3795L17.5799 10.8659L17.9358 11.5162C18.053 11.7304 18.1138 11.9709 18.1124 12.2151C18.1124 12.6375 17.9281 13.0395 17.6106 13.316L17.0499 13.8024L17.4058 14.4527C17.523 14.6669 17.5838 14.9074 17.5825 15.1516C17.5825 15.574 17.3981 15.976 17.0807 16.2524L16.52 16.7389L16.8759 17.3891C16.9931 17.6033 17.0539 17.8439 17.0525 18.0881C17.0525 18.6615 16.7146 19.1787 16.1923 19.4142H5.56007V12.0641L8.1074 2.83479C8.17309 2.59823 8.31409 2.38953 8.50904 2.24031C8.704 2.09109 8.94228 2.00949 9.18778 2.00786C9.38235 2.00786 9.57436 2.06419 9.72796 2.17939C9.98142 2.36884 10.1171 2.65558 10.1017 2.96023L9.85597 8.03954H17.905C18.3607 8.31859 18.6423 8.78966 18.6423 9.27864C18.6423 9.70106 18.458 10.1004 18.1406 10.3795Z" fill="white"/>
</svg>
