<svg width="21" height="22" viewBox="0 0 21 22" fill="none" xmlns="http://www.w3.org/2000/svg">
<path d="M19.8089 13.3295L18.2997 12.0392C18.3712 11.6014 18.408 11.1544 18.408 10.7074C18.408 10.2604 18.3712 9.81345 18.2997 9.37566L19.8089 8.08536C19.9228 7.98791 20.0042 7.85811 20.0425 7.71324C20.0808 7.56836 20.0741 7.41526 20.0232 7.27431L20.0025 7.2144C19.587 6.05318 18.9648 4.97672 18.1661 4.03702L18.1246 3.98863C18.0277 3.8747 17.8986 3.7928 17.7542 3.75372C17.6098 3.71465 17.457 3.72023 17.3159 3.76974L15.4426 4.43563C14.7514 3.86882 13.9795 3.42182 13.1454 3.10846L12.7837 1.14995C12.7564 1.00259 12.6849 0.867014 12.5787 0.761245C12.4725 0.655475 12.3367 0.584516 12.1892 0.557796L12.127 0.546275C10.9265 0.329688 9.66389 0.329688 8.46344 0.546275L8.40123 0.557796C8.25376 0.584516 8.11791 0.655475 8.01172 0.761245C7.90554 0.867014 7.83406 1.00259 7.80677 1.14995L7.44271 3.11767C6.61528 3.4311 5.84473 3.87786 5.16164 4.44024L3.27456 3.76974C3.13347 3.71984 2.98053 3.71405 2.83608 3.75315C2.69162 3.79225 2.56248 3.87438 2.46582 3.98863L2.42434 4.03702C1.62653 4.97738 1.00449 6.05367 0.587958 7.2144L0.56722 7.27431C0.463535 7.56232 0.548788 7.8849 0.781504 8.08536L2.30914 9.38949C2.23771 9.82266 2.20315 10.2651 2.20315 10.7051C2.20315 11.1475 2.23771 11.5899 2.30914 12.0208L0.781504 13.3249C0.66767 13.4224 0.586198 13.5522 0.547921 13.697C0.509644 13.8419 0.516375 13.995 0.56722 14.136L0.587958 14.1959C1.005 15.3572 1.62251 16.4286 2.42434 17.3733L2.46582 17.4217C2.56271 17.5356 2.69186 17.6175 2.83623 17.6566C2.9806 17.6956 3.13343 17.6901 3.27456 17.6405L5.16164 16.97C5.84826 17.5346 6.61554 17.9816 7.44271 18.2926L7.80677 20.2603C7.83406 20.4077 7.90554 20.5433 8.01172 20.649C8.11791 20.7548 8.25376 20.8258 8.40123 20.8525L8.46344 20.864C9.67492 21.0818 10.9155 21.0818 12.127 20.864L12.1892 20.8525C12.3367 20.8258 12.4725 20.7548 12.5787 20.649C12.6849 20.5433 12.7564 20.4077 12.7837 20.2603L13.1454 18.3018C13.9792 17.9893 14.7554 17.5408 15.4426 16.9747L17.3159 17.6405C17.457 17.6904 17.6099 17.6962 17.7544 17.6571C17.8988 17.618 18.028 17.5359 18.1246 17.4217L18.1661 17.3733C18.9679 16.4263 19.5854 15.3572 20.0025 14.1959L20.0232 14.136C20.1269 13.8526 20.0416 13.53 19.8089 13.3295ZM16.6638 9.64755C16.7214 9.99547 16.7514 10.3526 16.7514 10.7097C16.7514 11.0669 16.7214 11.424 16.6638 11.7719L16.5117 12.6959L18.2329 14.1682C17.972 14.7694 17.6426 15.3384 17.2514 15.8641L15.1131 15.106L14.3896 15.7005C13.839 16.1521 13.2261 16.5069 12.5625 16.7558L11.6846 17.0853L11.2722 19.3202C10.6214 19.394 9.96441 19.394 9.31366 19.3202L8.90122 17.0806L8.03026 16.7465C7.37359 16.4977 6.763 16.1429 6.21692 15.6936L5.49343 15.0968L3.34138 15.8618C2.94968 15.3341 2.6225 14.765 2.35983 14.1659L4.09944 12.6798L3.94967 11.7581C3.89437 11.4148 3.86442 11.06 3.86442 10.7097C3.86442 10.3572 3.89207 10.0047 3.94967 9.66138L4.09944 8.73973L2.35983 7.25357C2.62019 6.65219 2.94968 6.08538 3.34138 5.55774L5.49343 6.3227L6.21692 5.72594C6.763 5.27663 7.37359 4.9218 8.03026 4.67295L8.90353 4.34347L9.31596 2.10386C9.96342 2.03013 10.6247 2.03013 11.2745 2.10386L11.6869 4.33886L12.5648 4.66835C13.2261 4.91719 13.8413 5.27203 14.3919 5.72363L15.1154 6.3181L17.2537 5.56004C17.6454 6.08768 17.9725 6.6568 18.2352 7.25587L16.514 8.72821L16.6638 9.64755ZM10.2975 6.42409C8.05791 6.42409 6.24227 8.23973 6.24227 10.4793C6.24227 12.7189 8.05791 14.5346 10.2975 14.5346C12.5371 14.5346 14.3528 12.7189 14.3528 10.4793C14.3528 8.23973 12.5371 6.42409 10.2975 6.42409ZM12.1224 12.3042C11.883 12.5442 11.5986 12.7346 11.2854 12.8643C10.9722 12.994 10.6365 13.0605 10.2975 13.06C9.60859 13.06 8.96113 12.7904 8.47266 12.3042C8.23262 12.0649 8.04228 11.7804 7.91258 11.4672C7.78288 11.154 7.71638 10.8183 7.7169 10.4793C7.7169 9.79041 7.98649 9.14295 8.47266 8.65447C8.96113 8.166 9.60859 7.89872 10.2975 7.89872C10.9865 7.89872 11.6339 8.166 12.1224 8.65447C12.3624 8.89382 12.5528 9.17827 12.6825 9.49145C12.8122 9.80463 12.8787 10.1404 12.8781 10.4793C12.8781 11.1683 12.6086 11.8157 12.1224 12.3042Z" fill="white"/>
</svg>
